<svg width="49" height="48" viewBox="0 0 49 48" fill="none" xmlns="http://www.w3.org/2000/svg">
<path fill-rule="evenodd" clip-rule="evenodd" d="M0.477051 24C0.477051 10.7446 11.2217 0 24.4771 0C37.7324 0 48.4771 10.7446 48.4771 24C48.4771 37.2554 37.7324 48 24.4771 48C11.2217 48 0.477051 37.2554 0.477051 24ZM24.4771 14.7692C24.9667 14.7692 25.4363 14.9637 25.7825 15.31C26.1287 15.6562 26.3232 16.1258 26.3232 16.6154V25.8462C26.3232 26.3358 26.1287 26.8054 25.7825 27.1516C25.4363 27.4978 24.9667 27.6923 24.4771 27.6923C23.9874 27.6923 23.5178 27.4978 23.1716 27.1516C22.8254 26.8054 22.6309 26.3358 22.6309 25.8462V16.6154C22.6309 16.1258 22.8254 15.6562 23.1716 15.31C23.5178 14.9637 23.9874 14.7692 24.4771 14.7692ZM24.4771 35.0769C24.9667 35.0769 25.4363 34.8824 25.7825 34.5362C26.1287 34.19 26.3232 33.7204 26.3232 33.2308C26.3232 32.7411 26.1287 32.2716 25.7825 31.9253C25.4363 31.5791 24.9667 31.3846 24.4771 31.3846C23.9874 31.3846 23.5178 31.5791 23.1716 31.9253C22.8254 32.2716 22.6309 32.7411 22.6309 33.2308C22.6309 33.7204 22.8254 34.19 23.1716 34.5362C23.5178 34.8824 23.9874 35.0769 24.4771 35.0769Z" fill="black"/>
</svg>
