<svg width="18" height="18" viewBox="0 0 18 18" fill="none" xmlns="http://www.w3.org/2000/svg">
<path d="M11.6667 9H6.33333M17 9C17 10.0506 16.7931 11.0909 16.391 12.0615C15.989 13.0321 15.3997 13.914 14.6569 14.6569C13.914 15.3997 13.0321 15.989 12.0615 16.391C11.0909 16.7931 10.0506 17 9 17C7.94943 17 6.90914 16.7931 5.93853 16.391C4.96793 15.989 4.08601 15.3997 3.34315 14.6569C2.60028 13.914 2.011 13.0321 1.60896 12.0615C1.20693 11.0909 1 10.0506 1 9C1 6.87827 1.84285 4.84344 3.34315 3.34315C4.84344 1.84285 6.87827 1 9 1C11.1217 1 13.1566 1.84285 14.6569 3.34315C16.1571 4.84344 17 6.87827 17 9Z" stroke="#9CA3AF" stroke-width="1.5" stroke-linecap="round" stroke-linejoin="round"/>
</svg>
