<svg width="50" height="50" viewBox="0 0 50 50" fill="none" xmlns="http://www.w3.org/2000/svg">
<path d="M33.0176 25H17.0176M49.0176 25C49.0176 28.1517 48.3968 31.2726 47.1907 34.1844C45.9846 37.0962 44.2167 39.742 41.9881 41.9706C39.7595 44.1992 37.1138 45.967 34.202 47.1731C31.2902 48.3792 28.1693 49 25.0176 49C21.8659 49 18.745 48.3792 15.8332 47.1731C12.9214 45.967 10.2756 44.1992 8.04702 41.9706C5.81841 39.742 4.05058 37.0962 2.84447 34.1844C1.63836 31.2726 1.01758 28.1517 1.01758 25C1.01758 18.6348 3.54614 12.5303 8.04702 8.02944C12.5479 3.52856 18.6524 1 25.0176 1C31.3828 1 37.4873 3.52856 41.9881 8.02944C46.489 12.5303 49.0176 18.6348 49.0176 25Z" stroke="black" stroke-width="1.5" stroke-linecap="round" stroke-linejoin="round"/>
</svg>
