<svg width="55" height="48" viewBox="0 0 55 48" fill="none" xmlns="http://www.w3.org/2000/svg">
<path d="M13.3144 34.0345C13.3144 34.4997 12.9373 34.8768 12.4721 34.8768H12.2475C11.7823 34.8768 11.4052 34.4997 11.4052 34.0345C11.4052 33.5693 11.7823 33.1922 12.2475 33.1922H12.4721C12.9373 33.1922 13.3144 33.5693 13.3144 34.0345ZM8.14032 26.2858H7.91589C7.45069 26.2858 7.07356 26.6629 7.07356 27.1281C7.07356 27.5933 7.45069 27.9704 7.91589 27.9704H8.14032C8.60553 27.9704 8.98265 27.5933 8.98265 27.1281C8.98265 26.6629 8.60565 26.2858 8.14032 26.2858ZM16.281 19.4876H16.0563C15.5911 19.4876 15.214 19.8648 15.214 20.33C15.214 20.7952 15.5911 21.1723 16.0563 21.1723H16.281C16.7462 21.1723 17.1233 20.7952 17.1233 20.33C17.1233 19.8646 16.7462 19.4876 16.281 19.4876ZM21.4609 8.45583H21.2366C20.7714 8.45583 20.3942 8.83296 20.3942 9.29817C20.3942 9.76337 20.7714 10.1405 21.2366 10.1405H21.4609C21.9261 10.1405 22.3032 9.76337 22.3032 9.29817C22.3032 8.83308 21.9261 8.45583 21.4609 8.45583ZM31.9142 17.8681C31.9142 16.3801 33.125 15.1696 34.6131 15.1696C36.101 15.1696 37.3116 16.3801 37.3116 17.8681C37.3116 19.3561 36.101 20.5667 34.6131 20.5667C33.1249 20.5665 31.9142 19.356 31.9142 17.8681ZM33.5989 17.8681C33.5989 18.4271 34.0538 18.882 34.6131 18.882C35.1721 18.882 35.6269 18.4271 35.6269 17.8681C35.6269 17.309 35.1721 16.8543 34.6131 16.8543C34.0538 16.8541 33.5989 17.309 33.5989 17.8681ZM15.4533 15.5515C15.4533 17.0396 14.2427 18.2501 12.7546 18.2501C11.2666 18.2501 10.0559 17.0396 10.0559 15.5515C10.0559 14.0635 11.2666 12.8529 12.7546 12.8529C14.2427 12.8529 15.4533 14.0635 15.4533 15.5515ZM13.7687 15.5515C13.7687 14.9925 13.3138 14.5376 12.7546 14.5376C12.1954 14.5376 11.7406 14.9925 11.7406 15.5515C11.7406 16.1106 12.1954 16.5655 12.7546 16.5655C13.3138 16.5655 13.7687 16.1106 13.7687 15.5515ZM9.04992 19.4876H8.82538C8.36017 19.4876 7.98304 19.8648 7.98304 20.33C7.98304 20.7952 8.36017 21.1723 8.82538 21.1723H9.04992C9.51513 21.1723 9.89225 20.7952 9.89225 20.33C9.89225 19.8646 9.51513 19.4876 9.04992 19.4876ZM25.6263 10.1405H25.8509C26.3161 10.1405 26.6932 9.76337 26.6932 9.29817C26.6932 8.83296 26.3161 8.45583 25.8509 8.45583H25.6263C25.1611 8.45583 24.784 8.83296 24.784 9.29817C24.784 9.76349 25.1611 10.1405 25.6263 10.1405ZM43.6037 33.177C43.7271 33.2407 43.8591 33.2709 43.9891 33.2709C44.2943 33.2709 44.5887 33.1045 44.7384 32.8146L44.8413 32.6151C45.0545 32.2016 44.8924 31.6935 44.4789 31.4802C44.0654 31.2668 43.5575 31.4293 43.3441 31.8426L43.2412 32.0421C43.028 32.4556 43.1902 32.9637 43.6037 33.177ZM35.6235 42.7821C35.8467 43.169 35.7284 43.6594 35.362 43.9037C35.3359 43.923 35.3086 43.941 35.2797 43.9576C31.7257 46.0049 27.6673 47.087 23.5435 47.087C19.2909 47.087 15.2976 45.9533 11.8506 43.9728C11.8238 43.9609 11.7976 43.9476 11.7717 43.9327C11.745 43.9173 11.7194 43.9005 11.6951 43.8827C4.70516 39.7954 0 32.2087 0 23.5436C0 14.8783 4.70504 7.29173 11.695 3.20424C11.7194 3.18643 11.745 3.1697 11.7719 3.15418C11.7979 3.13926 11.8242 3.12578 11.8508 3.11399C15.2979 1.13354 19.291 0 23.5436 0C27.7962 0 31.7893 1.13342 35.2363 3.11387C35.2631 3.12578 35.2893 3.13914 35.3152 3.15418C35.3421 3.16958 35.3676 3.18631 35.392 3.20412C42.382 7.2916 47.0872 14.8783 47.0872 23.5434V23.5435C47.0872 24.0087 46.7101 24.3858 46.2449 24.3858H27.1117C27.1058 24.3858 27.0999 24.3858 27.0942 24.3857H24.9994L25.9995 26.1254C26.0203 26.1529 26.0396 26.182 26.0572 26.2127L35.6235 42.7821ZM33.7014 42.9036L22.8133 23.9632C22.6635 23.7026 22.6638 23.3818 22.8145 23.1215C22.965 22.8612 23.243 22.701 23.5436 22.701H41.9378C41.7076 17.6604 39.4189 12.9266 35.5791 9.6073C35.2271 9.3031 35.1885 8.7711 35.4927 8.41913C35.797 8.06703 36.3287 8.02829 36.6809 8.33273C40.8913 11.9725 43.3927 17.1701 43.624 22.7009H45.3864C45.1039 15.2761 41.1001 8.78867 35.1913 5.05304L26.0571 20.8742C25.8245 21.2771 25.3094 21.4153 24.9064 21.1825C24.5035 20.9499 24.3655 20.4348 24.598 20.0319L32.0127 7.18884C29.4093 5.83966 26.4983 5.12982 23.5432 5.12982C21.3524 5.12982 19.2088 5.51067 17.1721 6.26179C16.7351 6.4228 16.2513 6.19934 16.0904 5.76289C15.9294 5.32644 16.1528 4.8421 16.5893 4.68109C18.8133 3.86102 21.1531 3.44515 23.5434 3.44515C26.7939 3.44515 29.9961 4.23237 32.856 5.72847L33.7337 4.20818C30.6892 2.59716 27.221 1.68431 23.5434 1.68431C19.8657 1.68431 16.3974 2.59716 13.3529 4.2083L22.4885 20.032C22.7211 20.4349 22.583 20.9501 22.1801 21.1827C21.777 21.4154 21.262 21.2772 21.0294 20.8744L13.6155 8.0325C9.17651 10.8737 6.18418 15.4247 5.35809 20.6374C5.28529 21.0969 4.85341 21.4108 4.39422 21.3375C3.93478 21.2647 3.62131 20.8332 3.69412 20.3738C4.60011 14.657 7.89171 9.66975 12.7723 6.57213L11.8954 5.05328C5.98671 8.78891 1.9831 15.2765 1.70067 22.7013H19.9755C20.4407 22.7013 20.8178 23.0784 20.8178 23.5436C20.8178 24.0088 20.4407 24.3859 19.9755 24.3859H5.14931C5.38203 29.5019 7.72673 34.2842 11.6631 37.6119C12.0183 37.9123 12.0628 38.4438 11.7625 38.799C11.4622 39.1542 10.9307 39.199 10.5754 38.8985C6.25951 35.2499 3.69664 29.9991 3.46308 24.3859H1.70067C1.98322 31.8107 5.98671 38.298 11.8956 42.0337L21.0297 26.2125C21.2626 25.8096 21.7776 25.6716 22.1805 25.9042C22.5833 26.1368 22.7214 26.6519 22.4889 27.0548L15.0742 39.8978C17.6776 41.2472 20.5888 41.957 23.5437 41.957C25.7366 41.957 27.8816 41.5757 29.9193 40.8235C30.3559 40.6625 30.8401 40.8857 31.0013 41.322C31.1623 41.7584 30.9391 42.2428 30.5026 42.4039C28.2775 43.2253 25.9362 43.6418 23.5436 43.6418C20.2932 43.6418 17.0907 42.8545 14.2309 41.3581L13.3532 42.8785C16.3976 44.4896 19.866 45.4025 23.5436 45.4025C27.0901 45.4024 30.5841 44.5406 33.7014 42.9036ZM41.5888 37.0773C41.7124 37.1412 41.8445 37.1714 41.9746 37.1714C42.2796 37.1714 42.574 37.0052 42.7238 36.7154L42.8268 36.5159C43.0401 36.1026 42.8783 35.5944 42.4648 35.3809C42.0512 35.1672 41.5436 35.3295 41.3298 35.7428L41.2268 35.9423C41.0135 36.3556 41.1755 36.8638 41.5888 37.0773ZM38.5051 33.0144C38.6287 33.0783 38.7608 33.1085 38.891 33.1085C39.1961 33.1085 39.4904 32.9424 39.6401 32.6526L39.7431 32.4531C39.9566 32.0397 39.7948 31.5317 39.3814 31.3181C38.9684 31.1046 38.46 31.2666 38.2464 31.6798L38.1434 31.8793C37.9299 32.2928 38.0919 32.801 38.5051 33.0144ZM54.0174 27.4741C54.0174 31.6878 52.8909 35.8223 50.7594 39.431C48.6906 42.9334 45.7342 45.858 42.21 47.8883C42.081 47.9626 41.8247 48.0444 41.5704 47.9716C41.3555 47.9102 41.1708 47.7719 41.0593 47.5782L29.744 27.8939C29.5942 27.6331 29.5946 27.3124 29.7452 27.0522C29.8958 26.7919 30.1737 26.6317 30.4743 26.6317H53.1752C53.6404 26.6317 54.0174 27.0088 54.0174 27.4741ZM52.3165 28.3164H31.93L40.3728 43.0036C44.6961 40.246 47.6723 35.8387 48.5898 30.789C48.673 30.3314 49.11 30.0274 49.5693 30.1108C50.0271 30.1939 50.3305 30.6324 50.2474 31.0902C49.241 36.6287 45.9668 41.4591 41.2134 44.4655L42.0916 45.9934C48.1917 42.1567 52.0368 35.5093 52.3165 28.3164ZM26.5797 37.8587H26.8043C27.2695 37.8587 27.6466 37.4816 27.6466 37.0164C27.6466 36.5512 27.2695 36.174 26.8043 36.174H26.5797C26.1145 36.174 25.7374 36.5512 25.7374 37.0164C25.7374 37.4816 26.1145 37.8587 26.5797 37.8587ZM23.9926 37.3975C23.9926 38.8855 22.7819 40.0961 21.2938 40.0961C19.806 40.0961 18.5955 38.8855 18.5955 37.3975C18.5955 35.9094 19.806 34.6989 21.2938 34.6989C22.7819 34.6987 23.9926 35.9094 23.9926 37.3975ZM22.3079 37.3975C22.3079 36.8384 21.853 36.3835 21.2938 36.3835C20.7349 36.3835 20.2802 36.8384 20.2802 37.3975C20.2802 37.9565 20.7349 38.4114 21.2938 38.4114C21.853 38.4113 22.3079 37.9565 22.3079 37.3975ZM22.4466 30.6139C22.4466 31.0791 22.8238 31.4562 23.289 31.4562H23.5134C23.9786 31.4562 24.3557 31.0791 24.3557 30.6139C24.3557 30.1487 23.9786 29.7716 23.5134 29.7716H23.289C22.8238 29.7716 22.4466 30.1487 22.4466 30.6139ZM23.4314 14.7446H23.6561C24.1213 14.7446 24.4984 14.3675 24.4984 13.9022C24.4984 13.437 24.1213 13.0599 23.6561 13.0599H23.4314C22.9662 13.0599 22.5891 13.437 22.5891 13.9022C22.5891 14.3675 22.9661 14.7446 23.4314 14.7446ZM16.735 28.5354C16.735 30.0234 15.5243 31.234 14.0363 31.234C12.5484 31.234 11.3378 30.0234 11.3378 28.5354C11.3378 27.0473 12.5484 25.8368 14.0363 25.8368C15.5245 25.8368 16.735 27.0473 16.735 28.5354ZM15.0503 28.5354C15.0503 27.9763 14.5955 27.5215 14.0363 27.5215C13.4772 27.5215 13.0225 27.9763 13.0225 28.5354C13.0225 29.0945 13.4772 29.5493 14.0363 29.5493C14.5955 29.5492 15.0503 29.0945 15.0503 28.5354Z" fill="black"/>
</svg>
