<svg width="52" height="48" viewBox="0 0 52 48" fill="none" xmlns="http://www.w3.org/2000/svg">
<path d="M2.3232 5.08249e-08C1.83357 5.08249e-08 1.364 0.194505 1.01778 0.540726C0.671556 0.886947 0.477051 1.35652 0.477051 1.84615C0.477051 2.33578 0.671556 2.80536 1.01778 3.15158C1.364 3.4978 1.83357 3.69231 2.3232 3.69231H5.7349C6.15336 3.69231 6.51767 3.97292 6.62597 4.37662L12.9226 27.9877C10.9449 28.503 9.19401 29.6597 7.94411 31.2766C6.69422 32.8935 6.01594 34.8794 6.01551 36.9231C6.01551 37.9422 6.84259 38.7692 7.86167 38.7692H46.6309C47.1205 38.7692 47.5901 38.5747 47.9363 38.2285C48.2825 37.8823 48.477 37.4127 48.477 36.9231C48.477 36.4334 48.2825 35.9639 47.9363 35.6176C47.5901 35.2714 47.1205 35.0769 46.6309 35.0769H10.0229C10.4048 33.9968 11.1122 33.0617 12.0477 32.4005C12.9831 31.7392 14.1007 31.3843 15.2463 31.3846H42.8598C43.2057 31.3846 43.5446 31.2875 43.8379 31.1043C44.1312 30.921 44.3672 30.6591 44.5189 30.3483C47.3292 24.5812 49.763 18.6381 51.805 12.5563C51.8857 12.3157 51.9159 12.0611 51.8938 11.8083C51.8717 11.5555 51.7976 11.31 51.6764 11.0871C51.5551 10.8642 51.3892 10.6687 51.189 10.5128C50.9888 10.3568 50.7586 10.2439 50.5127 10.1809C37.5301 6.87052 24.1621 5.31656 10.7663 5.56062L10.1952 3.42646C9.93319 2.44367 9.35388 1.57495 8.54729 0.955319C7.7407 0.335687 6.75201 -0.000150842 5.7349 5.08249e-08H2.3232ZM6.01551 44.3077C6.01551 43.3284 6.40452 42.3893 7.09696 41.6968C7.78941 41.0044 8.72856 40.6154 9.70782 40.6154C10.6871 40.6154 11.6262 41.0044 12.3187 41.6968C13.0111 42.3893 13.4001 43.3284 13.4001 44.3077C13.4001 45.287 13.0111 46.2261 12.3187 46.9185C11.6262 47.611 10.6871 48 9.70782 48C8.72856 48 7.78941 47.611 7.09696 46.9185C6.40452 46.2261 6.01551 45.287 6.01551 44.3077ZM37.4001 44.3077C37.4001 43.3284 37.7891 42.3893 38.4816 41.6968C39.174 41.0044 40.1132 40.6154 41.0924 40.6154C42.0717 40.6154 43.0108 41.0044 43.7033 41.6968C44.3957 42.3893 44.7847 43.3284 44.7847 44.3077C44.7847 45.287 44.3957 46.2261 43.7033 46.9185C43.0108 47.611 42.0717 48 41.0924 48C40.1132 48 39.174 47.611 38.4816 46.9185C37.7891 46.2261 37.4001 45.287 37.4001 44.3077Z" fill="black"/>
</svg>
