<svg width="49" height="48" viewBox="0 0 49 48" fill="none" xmlns="http://www.w3.org/2000/svg">
<path fill-rule="evenodd" clip-rule="evenodd" d="M40.9324 41.4695C43.3177 39.2283 45.2179 36.5216 46.5156 33.5168C47.8132 30.512 48.4808 27.273 48.477 24C48.477 10.7446 37.7324 0 24.4771 0C11.2217 0 0.477067 10.7446 0.477067 24C0.47328 27.273 1.14086 30.512 2.43854 33.5168C3.73622 36.5216 5.63643 39.2283 8.02168 41.4695C12.4695 45.6711 18.3585 48.0082 24.4771 48C30.5956 48.0082 36.4846 45.6711 40.9324 41.4695ZM10.0648 38.3064C11.7929 36.1443 13.986 34.3993 16.4811 33.201C18.9762 32.0027 21.7091 31.3819 24.4771 31.3846C27.245 31.3819 29.9779 32.0027 32.473 33.201C34.9681 34.3993 37.1612 36.1443 38.8894 38.3064C37.0039 40.2109 34.759 41.7221 32.285 42.7523C29.811 43.7825 27.157 44.3111 24.4771 44.3077C21.7971 44.3111 19.1432 43.7825 16.6691 42.7523C14.1951 41.7221 11.9502 40.2109 10.0648 38.3064ZM33.7078 16.6154C33.7078 19.0635 32.7353 21.4114 31.0042 23.1425C29.2731 24.8736 26.9252 25.8461 24.4771 25.8461C22.0289 25.8461 19.681 24.8736 17.9499 23.1425C16.2188 21.4114 15.2463 19.0635 15.2463 16.6154C15.2463 14.1672 16.2188 11.8193 17.9499 10.0882C19.681 8.35714 22.0289 7.38461 24.4771 7.38461C26.9252 7.38461 29.2731 8.35714 31.0042 10.0882C32.7353 11.8193 33.7078 14.1672 33.7078 16.6154Z" fill="black"/>
</svg>
