<svg width="49" height="48" viewBox="0 0 49 48" fill="none" xmlns="http://www.w3.org/2000/svg">
<path fill-rule="evenodd" clip-rule="evenodd" d="M1.6786 0.846393C2.17722 0.348394 2.85312 0.0686739 3.55784 0.0686739C4.26255 0.0686739 4.93845 0.348394 5.43707 0.846393L24.8322 20.2415L44.2273 0.846393C44.4708 0.58512 44.7644 0.37556 45.0906 0.230213C45.4168 0.0848671 45.7689 0.00671386 46.126 0.000413866C46.4831 -0.00588613 46.8377 0.0597964 47.1689 0.193545C47.5 0.327293 47.8008 0.526367 48.0533 0.778889C48.3058 1.03141 48.5049 1.33221 48.6387 1.66334C48.7724 1.99447 48.8381 2.34914 48.8318 2.70621C48.8255 3.06327 48.7473 3.41541 48.602 3.74162C48.4566 4.06782 48.2471 4.36141 47.9858 4.60487L28.5907 24L47.9858 43.3951C48.2471 43.6386 48.4566 43.9322 48.602 44.2584C48.7473 44.5846 48.8255 44.9367 48.8318 45.2938C48.8381 45.6509 48.7724 46.0055 48.6387 46.3367C48.5049 46.6678 48.3058 46.9686 48.0533 47.2211C47.8008 47.4736 47.5 47.6727 47.1689 47.8065C46.8377 47.9402 46.4831 48.0059 46.126 47.9996C45.7689 47.9933 45.4168 47.9151 45.0906 47.7698C44.7644 47.6244 44.4708 47.4149 44.2273 47.1536L24.8322 27.7585L5.43707 47.1536C4.93296 47.6233 4.2662 47.8791 3.57726 47.8669C2.88832 47.8548 2.23099 47.5757 1.74376 47.0884C1.25653 46.6012 0.977443 45.9439 0.965287 45.2549C0.953132 44.566 1.20886 43.8992 1.6786 43.3951L21.0737 24L1.6786 4.60487C1.1806 4.10625 0.900879 3.43035 0.900879 2.72563C0.900879 2.02091 1.1806 1.34501 1.6786 0.846393Z" fill="black"/>
</svg>
